<svg width="133" height="24" viewBox="0 0 133 24" fill="none" xmlns="http://www.w3.org/2000/svg">
<g clip-path="url(#clip0_5041_17528)">
<path d="M29.9492 23.2513V1.74219H34.1859L44.81 19.7316H44.8754V1.74219H47.8735V23.2513H43.7346L32.9802 5.13156H32.9148V23.2513H29.9492ZM58.7355 23.675C57.1929 23.675 55.8024 23.3491 54.564 22.6972C53.3473 22.0454 52.3805 21.0678 51.6635 19.7643C50.9684 18.4389 50.6208 16.7986 50.6208 14.8433C50.6208 12.866 50.9792 11.2258 51.6962 9.92207C52.4132 8.61856 53.3691 7.64097 54.564 6.98911C55.7807 6.31561 57.1386 5.97886 58.6377 5.97886C60.1585 5.97886 61.5274 6.31561 62.7441 6.98911C63.9606 7.66262 64.9167 8.66205 65.6119 9.98742C66.3289 11.2909 66.6873 12.9312 66.6873 14.9084C66.6873 16.8854 66.3397 18.5257 65.6446 19.8294C64.9492 21.1329 63.9933 22.0997 62.7766 22.7299C61.5817 23.3599 60.2347 23.675 58.7355 23.675ZM58.7355 21.2307C59.7566 21.2307 60.6366 20.9918 61.3752 20.5137C62.1139 20.014 62.6789 19.3078 63.07 18.3954C63.4611 17.483 63.6565 16.3641 63.6565 15.0387C63.6565 13.6917 63.4501 12.5401 63.0373 11.5842C62.6246 10.6066 62.0379 9.85692 61.2774 9.33556C60.5388 8.79234 59.648 8.52074 58.6052 8.52074C57.584 8.52074 56.7042 8.78152 55.9653 9.30288C55.2267 9.8026 54.651 10.5304 54.2381 11.4864C53.847 12.4207 53.6516 13.5287 53.6516 14.8106C53.6516 16.7876 54.097 18.3519 54.9878 19.5035C55.9002 20.6551 57.1496 21.2307 58.7355 21.2307ZM73.0891 23.2513L66.9297 6.43508H70.1561L74.9141 20.644H75.0771L79.8678 6.43508H82.9637L76.8044 23.2513H73.0891ZM87.9358 23.675C87.045 23.675 86.2302 23.5229 85.4915 23.2186C84.7529 22.8929 84.1553 22.3931 83.6991 21.7196C83.2429 21.0461 83.0148 20.1662 83.0148 19.0797C83.0148 18.1021 83.1994 17.2982 83.5688 16.6681C83.938 16.0381 84.4486 15.5276 85.1004 15.1365C85.774 14.7454 86.5345 14.4412 87.3818 14.2239C88.2507 14.0066 89.1633 13.822 90.1193 13.67C91.3576 13.4528 92.2701 13.2898 92.8568 13.1812C93.4433 13.0507 93.8235 12.8879 93.9973 12.6923C94.193 12.4968 94.2906 12.2142 94.2906 11.845C94.2906 10.7804 93.9322 9.96556 93.2152 9.4007C92.52 8.83584 91.6509 8.55341 90.6082 8.55341C89.9779 8.55341 89.3479 8.67288 88.7179 8.91181C88.0877 9.15095 87.5555 9.55284 87.121 10.1177C86.7082 10.6609 86.4691 11.3996 86.404 12.3337L83.634 11.9428C83.7208 10.8129 83.9816 9.86775 84.4161 9.10745C84.8505 8.34695 85.4045 7.73859 86.078 7.28237C86.7515 6.82615 87.4796 6.50022 88.2617 6.30479C89.0439 6.0875 89.8368 5.97886 90.6406 5.97886C91.9225 5.97886 93.0522 6.21779 94.03 6.69586C95.0076 7.17373 95.7789 7.91238 96.3438 8.91181C96.9305 9.8896 97.2237 11.128 97.2237 12.6271V18.2976C97.2454 19.1232 97.2564 19.9489 97.2564 20.7745C97.2781 21.6 97.2889 22.4256 97.2889 23.2513H94.4862C94.5732 22.2735 94.6384 21.3175 94.6817 20.3834C94.747 19.4273 94.8121 18.4281 94.8773 17.3851H94.6165C94.4427 18.58 94.0625 19.6556 93.476 20.6116C92.8893 21.5456 92.129 22.2953 91.1947 22.8602C90.2604 23.4034 89.1742 23.675 87.9358 23.675ZM88.7504 21.2307C89.4239 21.2307 90.0866 21.0894 90.7384 20.807C91.3903 20.5246 91.9768 20.1118 92.4982 19.5686C93.0197 19.0254 93.4433 18.3738 93.7692 17.6133C94.0951 16.8311 94.2689 15.9511 94.2906 14.9736L94.3233 14.2566L95.1706 13.9633C94.9316 14.3109 94.5405 14.5825 93.9973 14.7779C93.4541 14.9517 92.8349 15.093 92.1398 15.2017C91.4446 15.2885 90.7384 15.3971 90.0214 15.5276C89.3263 15.6362 88.6744 15.81 88.0661 16.049C87.4577 16.2879 86.9688 16.6138 86.5996 17.0267C86.2302 17.4395 86.0456 18.0152 86.0456 18.754C86.0456 19.4927 86.2737 20.09 86.7299 20.5464C87.208 21.0026 87.8815 21.2307 88.7504 21.2307ZM105.408 23.5445C103.888 23.5445 102.725 23.121 101.921 22.2735C101.139 21.4262 100.748 20.177 100.748 18.5257V8.94448H98.6296V6.72833H99.4771C100.216 6.66319 100.748 6.4459 101.074 6.07668C101.4 5.6856 101.595 5.12054 101.661 4.38189L101.824 2.81759H103.681V6.43508H108.146V8.97695H103.681V18.3629C103.681 19.2102 103.876 19.8402 104.268 20.253C104.68 20.6659 105.224 20.8721 105.897 20.8721C106.288 20.8721 106.679 20.8178 107.07 20.7094C107.483 20.5789 107.842 20.3943 108.146 20.1553V23.0231C107.668 23.1969 107.201 23.3272 106.744 23.4142C106.31 23.501 105.865 23.5445 105.408 23.5445ZM110.528 23.2513V6.43508H113.494V23.2513H110.528ZM124.137 23.675C122.595 23.675 121.204 23.3491 119.966 22.6972C118.749 22.0454 117.782 21.0678 117.065 19.7643C116.37 18.4389 116.022 16.7986 116.022 14.8433C116.022 12.866 116.381 11.2258 117.098 9.92207C117.815 8.61856 118.771 7.64097 119.966 6.98911C121.183 6.31561 122.54 5.97886 124.04 5.97886C125.56 5.97886 126.929 6.31561 128.146 6.98911C129.362 7.66262 130.318 8.66205 131.014 9.98742C131.731 11.2909 132.089 12.9312 132.089 14.9084C132.089 16.8854 131.742 18.5257 131.046 19.8294C130.351 21.1329 129.395 22.0997 128.178 22.7299C126.984 23.3599 125.637 23.675 124.137 23.675ZM124.137 21.2307C125.158 21.2307 126.038 20.9918 126.777 20.5137C127.516 20.014 128.081 19.3078 128.472 18.3954C128.863 17.483 129.058 16.3641 129.058 15.0387C129.058 13.6917 128.852 12.5401 128.439 11.5842C128.026 10.6066 127.44 9.85692 126.679 9.33556C125.941 8.79234 125.05 8.52074 124.007 8.52074C122.986 8.52074 122.106 8.78152 121.367 9.30288C120.629 9.8026 120.053 10.5304 119.64 11.4864C119.249 12.4207 119.053 13.5287 119.053 14.8106C119.053 16.7876 119.499 18.3519 120.39 19.5035C121.302 20.6551 122.551 21.2307 124.137 21.2307Z" fill="#222625"/>
<path d="M114.204 2.47488L112.037 4.64475L109.869 2.47488L112.037 0.304688L114.204 2.47488Z" fill="#222625"/>
<g clip-path="url(#clip1_5041_17528)">
<path fill-rule="evenodd" clip-rule="evenodd" d="M10.1897 23.2578C10.4396 23.6075 10.8346 23.8246 11.2636 23.8481C11.709 23.8734 12.1552 23.8733 12.6006 23.8484C13.0297 23.8248 13.4248 23.6076 13.6747 23.258L13.703 23.2184C13.9673 22.8485 14.3044 22.3768 14.5372 22.0538C14.7087 21.8139 14.9508 21.6336 15.2298 21.5381C15.5969 21.4104 15.9562 21.2616 16.3053 21.0907C16.5704 20.9609 16.8694 20.9171 17.1607 20.9656C17.2824 20.9858 17.4214 21.0089 17.5685 21.0334C17.9132 21.0908 18.3029 21.1556 18.6217 21.2085C19.0456 21.279 19.4786 21.1533 19.7986 20.8665C20.1313 20.5695 20.4469 20.2539 20.7441 19.9213C21.0309 19.6013 21.1568 19.1682 21.0861 18.7442C21.0104 18.2893 20.9107 17.6902 20.8447 17.2829C20.7962 16.9921 20.8399 16.6934 20.9697 16.4286C21.139 16.0788 21.2878 15.7194 21.4138 15.3518C21.5094 15.0724 21.6899 14.83 21.9301 14.6584C22.2658 14.4185 22.7599 14.0654 23.135 13.797C23.4847 13.5472 23.7018 13.1521 23.7254 12.723C23.7505 12.2777 23.7505 11.8314 23.7256 11.3861C23.7021 10.9569 23.4848 10.5618 23.1352 10.3118C22.7599 10.0438 22.2657 9.69063 21.931 9.44938C21.6912 9.27801 21.5108 9.03587 21.4154 8.7569C21.2877 8.38979 21.1389 8.03047 20.968 7.68133C20.8381 7.41633 20.7943 7.11719 20.8428 6.82594C20.9105 6.4191 21.0102 5.81983 21.0858 5.36489C21.1563 4.94108 21.0305 4.5081 20.7437 4.18811C20.4467 3.85534 20.1311 3.53974 19.7986 3.2425C19.4785 2.95574 19.0454 2.82989 18.6215 2.90046L18.5939 2.90506C18.1425 2.98022 17.5592 3.07737 17.1602 3.14202C16.8693 3.19044 16.5706 3.14672 16.3059 3.01697C15.956 2.84769 15.5966 2.69878 15.229 2.57282C14.9497 2.4772 14.7073 2.29675 14.5356 2.0565C14.4795 1.97805 14.4172 1.89092 14.3513 1.79866C14.1352 1.49633 13.8799 1.13898 13.6742 0.851583C13.4245 0.501944 13.0293 0.284758 12.6002 0.261308C12.155 0.236061 11.7087 0.236067 11.2633 0.261026C10.8343 0.284487 10.4391 0.501783 10.1892 0.851428C9.92108 1.22672 9.56796 1.721 9.32671 2.05557C9.15524 2.29552 8.9131 2.47579 8.63412 2.57121C8.26702 2.69887 7.9077 2.8478 7.55856 3.01868C7.29346 3.14864 6.99442 3.19236 6.70327 3.14396L6.62744 3.13133C6.22442 3.06421 5.66966 2.97182 5.24212 2.90093C4.81832 2.83037 4.38534 2.95614 4.06534 3.2429C3.73257 3.53995 3.41697 3.85556 3.11974 4.18804C2.83298 4.50814 2.70712 4.94122 2.7777 5.36522L2.77976 5.37759C2.85526 5.83088 2.95387 6.42292 3.01926 6.82647C3.06777 7.11732 3.02405 7.41606 2.8942 7.68086C2.72493 8.0307 2.57611 8.39003 2.45005 8.75764C2.35453 9.03701 2.17398 9.27946 1.93383 9.45104C1.59817 9.69089 1.104 10.044 0.728913 10.3123C0.379276 10.5622 0.162088 10.9573 0.138537 11.3864C0.113388 11.8317 0.113395 12.278 0.138253 12.7233C0.161813 13.1525 0.379009 13.5477 0.728753 13.7976L0.751569 13.8139C1.1238 14.0798 1.60496 14.4236 1.93289 14.66C2.17274 14.8315 2.353 15.0736 2.44853 15.3525C2.57619 15.7196 2.72502 16.0789 2.8959 16.428C3.02585 16.6931 3.06967 16.9922 3.02117 17.2835L3.00088 17.4053C2.93452 17.8038 2.84637 18.333 2.77815 18.7444C2.70758 19.1683 2.83335 19.6013 3.12021 19.9214C3.41716 20.2541 3.73276 20.5697 4.06534 20.8669C4.38544 21.1537 4.81843 21.2795 5.24242 21.209L5.27026 21.2043C5.72158 21.1292 6.30479 21.032 6.70377 20.9674C6.99462 20.919 7.29326 20.9627 7.55796 21.0924C7.9079 21.2617 8.26723 21.4105 8.63493 21.5366C8.91431 21.6321 9.15675 21.8127 9.32833 22.0528L9.39165 22.1414C9.62745 22.4714 9.94408 22.9145 10.1897 23.2578ZM11.7795 15.5922C10.6587 15.6175 9.54256 15.9162 8.53554 16.4906C6.89806 17.4257 5.91241 18.409 5.91241 18.409L5.58133 18.0782C5.58133 18.0782 6.56561 17.0926 7.50003 15.4521C8.69729 13.3452 8.69613 10.7628 7.49703 8.65821C6.56238 7.02005 5.57765 6.03437 5.57765 6.03437L5.90851 5.70351C5.90851 5.70351 6.89531 6.68917 8.53554 7.62198C10.6422 8.81901 13.2237 8.81902 15.3292 7.61969C16.9667 6.68458 17.9521 5.70122 17.9521 5.70122L18.2834 6.03208C18.2834 6.03208 17.2991 7.01775 16.3647 8.65821C15.808 9.63698 15.5105 10.7191 15.4721 11.8105C15.4657 11.9874 15.4664 12.1666 15.4739 12.3435C15.5194 13.4187 15.8174 14.4848 16.3677 15.4521C17.3024 17.0903 18.2871 18.0759 18.2871 18.0759L17.9565 18.4068C17.9565 18.4068 16.9694 17.4211 15.3292 16.4883C14.3904 15.953 13.3577 15.6589 12.3146 15.6014C12.1363 15.5899 11.958 15.5876 11.7795 15.5922Z" fill="#222625"/>
<path fill-rule="evenodd" clip-rule="evenodd" d="M11.9347 13.4969L10.5024 12.0648L11.9347 10.6328L13.3672 12.0648L11.9347 13.4969Z" fill="#222625"/>
</g>
</g>
<defs>
<clipPath id="clip0_5041_17528">
<rect width="132.116" height="23.3971" fill="white" transform="translate(0 0.304688)"/>
</clipPath>
<clipPath id="clip1_5041_17528">
<rect width="23.6497" height="23.6497" fill="white" transform="translate(11.8828 -4.60156) rotate(45)"/>
</clipPath>
</defs>
</svg>
