<svg width="136" height="25" viewBox="0 0 136 25" fill="none" xmlns="http://www.w3.org/2000/svg">
<g clip-path="url(#clip0_4168_7174)">
<path d="M30.9615 23.8993V1.83594H35.3074L46.2053 20.2889H46.2724V1.83594H49.3477V23.8993H45.1022L34.0706 5.31266H34.0036V23.8993H30.9615ZM60.4897 24.334C58.9073 24.334 57.4809 23.9996 56.2107 23.331C54.9626 22.6623 53.9709 21.6595 53.2354 20.3224C52.5224 18.9629 52.1658 17.2804 52.1658 15.2746C52.1658 13.2465 52.5335 11.5639 53.269 10.2266C54.0044 8.88951 54.985 7.88673 56.2107 7.21808C57.4587 6.52722 58.8516 6.18179 60.3893 6.18179C61.9493 6.18179 63.3535 6.52722 64.6015 7.21808C65.8494 7.90894 66.8302 8.93413 67.5433 10.2936C68.2787 11.6307 68.6464 13.3133 68.6464 15.3415C68.6464 17.3694 68.2898 19.052 67.5768 20.3893C66.8635 21.7264 65.8829 22.718 64.6349 23.3645C63.4092 24.0107 62.0275 24.334 60.4897 24.334ZM60.4897 21.8267C61.5371 21.8267 62.4397 21.5816 63.1974 21.0912C63.9551 20.5786 64.5347 19.8543 64.9359 18.9183C65.337 17.9824 65.5375 16.8346 65.5375 15.4751C65.5375 14.0934 65.3257 12.9121 64.9024 11.9316C64.479 10.9288 63.8772 10.1598 63.0971 9.62499C62.3394 9.06778 61.4256 8.78917 60.356 8.78917C59.3084 8.78917 58.406 9.05667 57.6481 9.59147C56.8904 10.1041 56.2999 10.8507 55.8763 11.8312C55.4752 12.7896 55.2747 13.9262 55.2747 15.2411C55.2747 17.2691 55.7316 18.8737 56.6453 20.0549C57.5813 21.2362 58.8629 21.8267 60.4897 21.8267ZM75.2131 23.8993L68.895 6.64976H72.2046L77.0852 21.2249H77.2524L82.1666 6.64976H85.3423L79.0242 23.8993H75.2131ZM90.4424 24.334C89.5287 24.334 88.6929 24.1779 87.9352 23.8658C87.1775 23.5317 86.5646 23.0191 86.0966 22.3282C85.6286 21.6373 85.3946 20.7347 85.3946 19.6203C85.3946 18.6175 85.584 17.7928 85.9629 17.1465C86.3417 16.5003 86.8654 15.9766 87.534 15.5754C88.2249 15.1743 89.005 14.8622 89.8741 14.6393C90.7655 14.4164 91.7016 14.227 92.6822 14.0712C93.9525 13.8483 94.8884 13.6811 95.4902 13.5697C96.0919 13.4358 96.4819 13.2689 96.6602 13.0682C96.8609 12.8677 96.961 12.5778 96.961 12.1991C96.961 11.1071 96.5934 10.2712 95.8579 9.69181C95.1448 9.11239 94.2533 8.82269 93.1837 8.82269C92.5372 8.82269 91.891 8.94523 91.2447 9.19032C90.5983 9.43562 90.0524 9.84788 89.6066 10.4273C89.1833 10.9845 88.938 11.7422 88.8711 12.7003L86.0298 12.2994C86.1188 11.1404 86.3863 10.1709 86.8321 9.391C87.2776 8.6109 87.8459 7.98687 88.5368 7.51889C89.2277 7.05091 89.9745 6.71659 90.7768 6.51611C91.5791 6.29323 92.3925 6.18179 93.217 6.18179C94.5319 6.18179 95.6907 6.42688 96.6937 6.91727C97.6965 7.40745 98.4877 8.16513 99.0671 9.19032C99.6689 10.1933 99.9697 11.4636 99.9697 13.0014V18.818C99.992 19.6649 100.003 20.5118 100.003 21.3587C100.025 22.2055 100.037 23.0524 100.037 23.8993H97.1617C97.2509 22.8963 97.3177 21.9157 97.3622 20.9576C97.4292 19.9768 97.496 18.9518 97.5628 17.882H97.2953C97.1171 19.1077 96.727 20.211 96.1254 21.1916C95.5236 22.1497 94.7437 22.9187 93.7853 23.4981C92.8269 24.0554 91.7127 24.334 90.4424 24.334ZM91.278 21.8267C91.9689 21.8267 92.6487 21.6818 93.3173 21.392C93.986 21.1023 94.5876 20.679 95.1224 20.1218C95.6574 19.5646 96.0919 18.8961 96.4262 18.116C96.7605 17.3137 96.9388 16.4111 96.961 15.4083L96.9945 14.6728L97.8636 14.372C97.6186 14.7285 97.2174 15.0071 96.6602 15.2076C96.103 15.3859 95.4678 15.5308 94.7548 15.6423C94.0417 15.7313 93.3173 15.8427 92.5818 15.9766C91.8688 16.088 91.2001 16.2663 90.5761 16.5114C89.952 16.7565 89.4506 17.0908 89.0718 17.5144C88.6929 17.9377 88.5035 18.5283 88.5035 19.2862C88.5035 20.0438 88.7375 20.6566 89.2055 21.1248C89.6959 21.5927 90.3867 21.8267 91.278 21.8267ZM108.365 24.2001C106.805 24.2001 105.613 23.7656 104.788 22.8963C103.986 22.0272 103.585 20.7458 103.585 19.052V9.22384H101.412V6.95057H102.281C103.039 6.88375 103.585 6.66086 103.919 6.28213C104.253 5.88097 104.454 5.30135 104.521 4.54366L104.688 2.93905H106.593V6.64976H111.173V9.25715H106.593V18.885C106.593 19.7541 106.794 20.4004 107.195 20.8237C107.619 21.2473 108.176 21.4589 108.867 21.4589C109.268 21.4589 109.669 21.4031 110.07 21.2919C110.494 21.1581 110.861 20.9687 111.173 20.7236V23.6653C110.683 23.8436 110.204 23.9772 109.736 24.0665C109.29 24.1555 108.833 24.2001 108.365 24.2001ZM113.617 23.8993V6.64976H116.659V23.8993H113.617ZM127.577 24.334C125.995 24.334 124.568 23.9996 123.298 23.331C122.05 22.6623 121.058 21.6595 120.323 20.3224C119.61 18.9629 119.253 17.2804 119.253 15.2746C119.253 13.2465 119.621 11.5639 120.356 10.2266C121.092 8.88951 122.072 7.88673 123.298 7.21808C124.546 6.52722 125.939 6.18179 127.477 6.18179C129.037 6.18179 130.441 6.52722 131.689 7.21808C132.937 7.90894 133.917 8.93413 134.631 10.2936C135.366 11.6307 135.734 13.3133 135.734 15.3415C135.734 17.3694 135.377 19.052 134.664 20.3893C133.951 21.7264 132.97 22.718 131.722 23.3645C130.496 24.0107 129.115 24.334 127.577 24.334ZM127.577 21.8267C128.624 21.8267 129.527 21.5816 130.285 21.0912C131.042 20.5786 131.622 19.8543 132.023 18.9183C132.424 17.9824 132.625 16.8346 132.625 15.4751C132.625 14.0934 132.413 12.9121 131.99 11.9316C131.566 10.9288 130.964 10.1598 130.184 9.62499C129.427 9.06778 128.513 8.78917 127.443 8.78917C126.396 8.78917 125.493 9.05667 124.735 9.59147C123.978 10.1041 123.387 10.8507 122.964 11.8312C122.562 12.7896 122.362 13.9262 122.362 15.2411C122.362 17.2691 122.819 18.8737 123.733 20.0549C124.669 21.2362 125.95 21.8267 127.577 21.8267Z" fill="white"/>
<path d="M117.386 2.5855L115.163 4.81128L112.94 2.5855L115.163 0.359375L117.386 2.5855Z" fill="white"/>
<g clip-path="url(#clip1_4168_7174)">
<path fill-rule="evenodd" clip-rule="evenodd" d="M10.6925 23.9056C10.9487 24.2643 11.354 24.487 11.794 24.5111C12.2509 24.537 12.7086 24.537 13.1655 24.5114C13.6056 24.4872 14.011 24.2644 14.2672 23.9058L14.2963 23.8652C14.5674 23.4857 14.9132 23.0019 15.152 22.6706C15.3279 22.4245 15.5763 22.2396 15.8624 22.1416C16.239 22.0106 16.6076 21.858 16.9656 21.6827C17.2376 21.5495 17.5443 21.5045 17.8431 21.5543C17.9679 21.5751 18.1105 21.5988 18.2614 21.6239C18.615 21.6827 19.0147 21.7492 19.3418 21.8035C19.7766 21.8759 20.2207 21.7468 20.549 21.4527C20.8902 21.148 21.2139 20.8242 21.5188 20.4831C21.8131 20.1549 21.9422 19.7106 21.8697 19.2757C21.792 18.8091 21.6897 18.1945 21.622 17.7768C21.5722 17.4784 21.6171 17.172 21.7503 16.9004C21.9239 16.5416 22.0766 16.1729 22.2058 15.7958C22.3039 15.5093 22.489 15.2606 22.7354 15.0846C23.0797 14.8385 23.5866 14.4763 23.9714 14.201C24.33 13.9448 24.5528 13.5395 24.577 13.0993C24.6028 12.6426 24.6027 12.1847 24.5771 11.728C24.5531 11.2877 24.3302 10.8824 23.9715 10.626C23.5866 10.351 23.0797 9.9888 22.7364 9.74134C22.4903 9.56555 22.3053 9.31717 22.2074 9.03101C22.0765 8.65444 21.9238 8.28586 21.7485 7.92772C21.6152 7.65589 21.5703 7.34905 21.62 7.05029C21.6896 6.63297 21.7918 6.01826 21.8693 5.55159C21.9417 5.11686 21.8126 4.67272 21.5184 4.34448C21.2137 4.00314 20.89 3.6794 20.549 3.37451C20.2206 3.08036 19.7764 2.95126 19.3415 3.02365L19.3132 3.02837C18.8502 3.10547 18.2519 3.20512 17.8425 3.27144C17.5442 3.3211 17.2378 3.27626 16.9662 3.14316C16.6074 2.96953 16.2387 2.81677 15.8616 2.68757C15.5751 2.58949 15.3264 2.40438 15.1503 2.15794C15.0928 2.07747 15.0289 1.98809 14.9613 1.89346C14.7397 1.58334 14.4777 1.21677 14.2668 0.921975C14.0106 0.563326 13.6052 0.340543 13.1651 0.316488C12.7084 0.290591 12.2506 0.290597 11.7938 0.316199C11.3536 0.340265 10.9483 0.563161 10.6919 0.921816C10.4169 1.30678 10.0547 1.8138 9.80723 2.15699C9.63133 2.40312 9.38295 2.58803 9.09679 2.68592C8.72022 2.81687 8.35164 2.96963 7.9935 3.14492C7.72157 3.27823 7.41483 3.32307 7.11618 3.27342L7.03839 3.26047C6.62499 3.19162 6.05593 3.09685 5.61738 3.02414C5.18265 2.95176 4.73851 3.08077 4.41027 3.37492C4.06893 3.67962 3.74519 4.00336 3.4403 4.34441C3.14615 4.67276 3.01705 5.117 3.08944 5.55193L3.09155 5.56462C3.169 6.02959 3.27016 6.63688 3.33723 7.05083C3.38699 7.34918 3.34215 7.65562 3.20895 7.92724C3.03531 8.2861 2.88266 8.65469 2.75335 9.03177C2.65537 9.31834 2.47016 9.56704 2.22383 9.74304C1.87951 9.98907 1.37262 10.3513 0.987859 10.6265C0.629212 10.8828 0.406427 11.2881 0.382269 11.7283C0.356474 12.185 0.356479 12.6429 0.381977 13.0996C0.406146 13.5399 0.628939 13.9453 0.987695 14.2016L1.0111 14.2183C1.39292 14.4911 1.88648 14.8438 2.22287 15.0863C2.46889 15.2622 2.6538 15.5105 2.75179 15.7966C2.88274 16.1732 3.0354 16.5418 3.21069 16.8998C3.34399 17.1717 3.38894 17.4786 3.33919 17.7773L3.31837 17.9023C3.2503 18.311 3.15989 18.8539 3.0899 19.2759C3.01752 19.7107 3.14653 20.1549 3.44078 20.4832C3.74538 20.8245 4.06912 21.1482 4.41027 21.4531C4.73862 21.7472 5.18276 21.8763 5.61768 21.804L5.64624 21.7992C6.10918 21.7221 6.70743 21.6225 7.11669 21.5562C7.41503 21.5065 7.72137 21.5513 7.99289 21.6844C8.35185 21.8581 8.72044 22.0107 9.09762 22.14C9.38419 22.238 9.63289 22.4232 9.80889 22.6696L9.87384 22.7605C10.1157 23.099 10.4405 23.5535 10.6925 23.9056ZM12.3232 16.0425C11.1736 16.0684 10.0286 16.3748 8.99566 16.964C7.31599 17.9232 6.30494 18.9319 6.30494 18.9319L5.96532 18.5926C5.96532 18.5926 6.97497 17.5815 7.93347 15.8987C9.16158 13.7376 9.16039 11.0886 7.93039 8.92978C6.97166 7.2494 5.96155 6.23832 5.96155 6.23832L6.30093 5.89894C6.30093 5.89894 7.31316 6.90999 8.99566 7.86684C11.1566 9.09472 13.8047 9.09473 15.9644 7.86449C17.6441 6.90529 18.6549 5.89659 18.6549 5.89659L18.9947 6.23597C18.9947 6.23597 17.9851 7.24705 17.0266 8.92978C16.4555 9.93377 16.1504 11.0438 16.111 12.1633C16.1044 12.3447 16.1051 12.5285 16.1129 12.71C16.1595 13.813 16.4652 14.9065 17.0297 15.8987C17.9884 17.5791 18.9985 18.5902 18.9985 18.5902L18.6594 18.9295C18.6594 18.9295 17.6469 17.9185 15.9644 16.9616C15.0014 16.4125 13.9421 16.1109 12.8721 16.0519C12.6892 16.0401 12.5063 16.0378 12.3232 16.0425Z" fill="white"/>
<path fill-rule="evenodd" clip-rule="evenodd" d="M12.4802 13.8832L11.0109 12.4142L12.4802 10.9453L13.9496 12.4142L12.4802 13.8832Z" fill="white"/>
</g>
</g>
<defs>
<clipPath id="clip0_4168_7174">
<rect width="135.521" height="24" fill="white" transform="translate(0.239624 0.359375)"/>
</clipPath>
<clipPath id="clip1_4168_7174">
<rect width="24.2592" height="24.2592" fill="white" transform="translate(12.4292 -4.67188) rotate(45)"/>
</clipPath>
</defs>
</svg>
